<?xml version="1.0" encoding="UTF-8"?>
<svg id="Layer_1" xmlns="http://www.w3.org/2000/svg" xmlns:xlink="http://www.w3.org/1999/xlink" version="1.1" viewBox="0 0 639.6 126.9">
  <!-- Generator: Adobe Illustrator 29.1.0, SVG Export Plug-In . SVG Version: 2.1.0 Build 142)  -->
  <defs>
    <style>
      .st0, .st1, .st2, .st3, .st4, .st5, .st6, .st7, .st8, .st9, .st10, .st11, .st12, .st13, .st14, .st15, .st16, .st17, .st18, .st19, .st20, .st21 {
        fill: none;
      }

      .st1 {
        opacity: .3;
        stroke-miterlimit: 1.7;
        stroke-width: 7px;
      }

      .st1, .st2, .st3, .st4, .st5, .st6, .st7, .st8, .st9, .st10, .st11, .st12, .st13, .st14, .st15, .st16, .st17, .st18, .st19, .st20, .st21 {
        isolation: isolate;
        stroke: #000;
      }

      .st2 {
        opacity: .8;
        stroke-miterlimit: 1.7;
        stroke-width: 7px;
      }

      .st3 {
        opacity: .2;
        stroke-miterlimit: 1.7;
        stroke-width: 7px;
      }

      .st4 {
        opacity: .6;
        stroke-miterlimit: 1.7;
        stroke-width: 7px;
      }

      .st22 {
        fill: #231f20;
      }

      .st5 {
        opacity: 0;
        stroke-miterlimit: 1.7;
        stroke-width: 7px;
      }

      .st6 {
        opacity: .6;
        stroke-miterlimit: 1.7;
        stroke-width: 7px;
      }

      .st7 {
        opacity: .4;
        stroke-miterlimit: 1.7;
        stroke-width: 7px;
      }

      .st8 {
        opacity: .7;
        stroke-miterlimit: 1.7;
        stroke-width: 7px;
      }

      .st9 {
        opacity: .1;
        stroke-miterlimit: 1.7;
        stroke-width: 7px;
      }

      .st10 {
        opacity: .4;
        stroke-miterlimit: 1.7;
        stroke-width: 7px;
      }

      .st11 {
        opacity: .6;
        stroke-miterlimit: 1.7;
        stroke-width: 7px;
      }

      .st12 {
        opacity: .8;
        stroke-miterlimit: 1.7;
        stroke-width: 7px;
      }

      .st13 {
        opacity: .7;
        stroke-miterlimit: 1.7;
        stroke-width: 7px;
      }

      .st14 {
        opacity: .5;
        stroke-miterlimit: 1.7;
        stroke-width: 7px;
      }

      .st15 {
        opacity: .2;
        stroke-miterlimit: 1.7;
        stroke-width: 7px;
      }

      .st16 {
        opacity: .9;
        stroke-miterlimit: 1.7;
        stroke-width: 7px;
      }

      .st17 {
        opacity: .9;
        stroke-miterlimit: 1.7;
        stroke-width: 7px;
      }

      .st18 {
        opacity: .1;
        stroke-miterlimit: 1.7;
        stroke-width: 7px;
      }

      .st19 {
        opacity: .3;
        stroke-miterlimit: 1.7;
        stroke-width: 7px;
      }

      .st20 {
        opacity: .9;
        stroke-miterlimit: 1.7;
        stroke-width: 7px;
      }

      .st23 {
        clip-path: url(#clippath);
      }

      .st21 {
        opacity: .5;
        stroke-miterlimit: 1.7;
        stroke-width: 7px;
      }
    </style>
    <clipPath id="clippath">
      <ellipse class="st0" cx="65.5" cy="63.2" rx="63.3" ry="63.2" transform="translate(-24.8 52.2) rotate(-37)"/>
    </clipPath>
  </defs>
  <g class="st23">
    <g id="g72442">
      <path id="path72398" class="st5" d="M10.3-539.7c27.4-11.6,58.8-7.8,82.6,10.1l421.8,317.4c23.7,17.9,36.2,47.1,32.6,76.6l-64,524c-3.6,29.5-22.7,54.8-50,66.5L-52.7,661.4c-27.4,11.6-58.8,7.8-82.6-10.1l-421.8-317.4c-23.7-17.9-36.2-47.1-32.6-76.6l64-524c3.6-29.5,22.7-54.8,50-66.5L10.3-539.7Z"/>
      <path id="path72400" class="st9" d="M-11.2-513.1c25.7-12,55.9-9.4,79.1,6.9L480.9-217.4c23.2,16.3,36.1,43.7,33.6,71.9l-43.6,502c-2.5,28.3-19.8,53.1-45.5,65.1L-31.2,634.8c-25.7,12-55.9,9.4-79.1-6.9l-412.9-288.8c-23.2-16.3-36.1-43.7-33.6-71.9l43.6-502c2.5-28.3,19.8-53.1,45.5-65.1L-11.2-513.1Z"/>
      <path id="path72402" class="st18" d="M-30.8-485.7c24.1-12.3,52.9-10.8,75.5,3.9L447.4-220.7c22.7,14.7,35.8,40.4,34.4,67.4l-24.8,479.2c-1.4,27-17.1,51.2-41.2,63.5L-11.7,607.5c-24.1,12.3-52.9,10.8-75.5-3.9l-402.6-261.1c-22.7-14.7-35.8-40.4-34.4-67.4l24.8-479.2c1.4-27,17.1-51.2,41.2-63.5L-30.8-485.7Z"/>
      <path id="path72404" class="st3" d="M-48.4-457.8c22.4-12.5,49.8-12,71.8,1.2l390.9,234.6c22,13.2,35.3,37.2,34.9,62.8l-7.7,455.8c-.4,25.7-14.5,49.2-37,61.6L6,579.5c-22.4,12.5-49.8,12-71.8-1.2l-390.9-234.6c-22-13.2-35.3-37.2-34.9-62.8l7.7-455.8c.4-25.7,14.5-49.2,37-61.6L-48.4-457.8Z"/>
      <path id="path72406" class="st15" d="M-64.1-429.3c20.8-12.5,46.8-13,68.1-1.2l377.9,209.2c21.3,11.8,34.7,34,35.1,58.3l7.8,431.8c.4,24.3-12.1,47-33,59.6L21.7,551c-20.8,12.5-46.8,13-68.1,1.2l-377.9-209.2c-21.3-11.8-34.7-34-35.1-58.3l-7.8-431.8c-.4-24.3,12.1-47,33-59.6L-64.1-429.3Z"/>
      <path id="path72408" class="st1" d="M-77.8-400.3c19.3-12.5,43.7-13.8,64.2-3.4l363.6,185c20.5,10.4,33.8,31,35,53.9l21.6,407.3c1.2,22.9-9.9,44.8-29.2,57.3L35.4,522.1c-19.3,12.5-43.7,13.8-64.2,3.4l-363.6-185c-20.5-10.4-33.8-31-35-53.9l-21.6-407.3c-1.2-22.9,9.9-44.8,29.2-57.3L-77.8-400.3Z"/>
      <path id="path72410" class="st19" d="M-89.6-371.1c17.7-12.4,40.7-14.4,60.3-5.3l348,162c19.6,9.1,32.8,28,34.7,49.5l33.7,382.4c1.9,21.5-7.8,42.4-25.5,54.9L47.2,492.9c-17.7,12.4-40.7,14.4-60.3,5.3l-348-162c-19.6-9.1-32.8-28-34.7-49.5l-33.7-382.4c-1.9-21.5,7.8-42.4,25.5-54.9L-89.6-371.1Z"/>
      <path id="path72412" class="st7" d="M-99.4-341.6c16.2-12.2,37.6-14.9,56.3-6.9l331.4,140.4c18.7,7.9,31.7,25.2,34.2,45.3l44.1,357.2c2.5,20.1-6,40-22.1,52.2L57,463.4c-16.2,12.2-37.6,14.9-56.3,6.9l-331.4-140.4c-18.7-7.9-31.7-25.2-34.2-45.3l-44.1-357.2c-2.5-20.1,6-40,22.1-52.2L-99.4-341.6Z"/>
      <path id="path72414" class="st10" d="M-107.3-312c14.7-11.9,34.6-15.1,52.3-8.3l313.7,120.2c17.7,6.8,30.4,22.4,33.3,41.1l52.7,331.8c3,18.7-4.3,37.5-18.9,49.4L64.9,433.8c-14.7,11.9-34.6,15.1-52.3,8.3l-313.7-120.2c-17.7-6.8-30.4-22.4-33.3-41.1l-52.7-331.8c-3-18.7,4.3-37.5,18.9-49.4L-107.3-312Z"/>
      <path id="path72416" class="st21" d="M-113.2-282.4c13.2-11.5,31.6-15.1,48.3-9.4l295,101.4c16.6,5.7,28.9,19.8,32.3,37.1l59.7,306.2c3.4,17.2-2.7,35-16,46.5l-235.3,204.8c-13.2,11.5-31.6,15.1-48.3,9.4l-295-101.4c-16.6-5.7-28.9-19.8-32.3-37.1L-364.5-31.1c-3.4-17.2,2.7-35,16-46.5l235.3-204.8Z"/>
      <path id="path72418" class="st14" d="M-117.1-252.8c11.9-11.1,28.7-15,44.2-10.2l275.4,84c15.5,4.7,27.3,17.4,31,33.2l64.9,280.5c3.7,15.8-1.4,32.3-13.2,43.4l-210.5,196.5c-11.9,11.1-28.7,15-44.2,10.2l-275.4-84c-15.5-4.7-27.3-17.4-31-33.2L-340.8-12.9c-3.7-15.8,1.4-32.3,13.2-43.4L-117.1-252.8Z"/>
      <path id="path72420" class="st11" d="M-119.1-223.4c10.5-10.5,25.8-14.6,40.2-10.8l255,68.2c14.4,3.8,25.6,15,29.4,29.4l68.5,254.9c3.9,14.4-.2,29.7-10.7,40.2l-186.5,186.7c-10.5,10.5-25.8,14.6-40.2,10.8l-255-68.2c-14.4-3.8-25.6-15-29.4-29.4L-316.4,3.5c-3.9-14.4.2-29.7,10.7-40.2L-119.1-223.4Z"/>
      <path id="path72422" class="st4" d="M-119.2-194.3c9.2-9.9,23-14.1,36.2-11.1l233.8,53.8c13.2,3,23.7,12.9,27.7,25.8l70.3,229.4c4,12.9.7,27-8.5,36.9l-163.5,175.6c-9.2,9.9-23,14.1-36.2,11.1l-233.8-53.8c-13.2-3-23.7-12.9-27.7-25.8L-291.2,18.1c-4-12.9-.7-27,8.5-36.9L-119.2-194.3Z"/>
      <path id="path72424" class="st6" d="M-117.3-165.6c8-9.2,20.2-13.4,32.2-11.1l212,41.1c11.9,2.3,21.7,10.8,25.7,22.3l70.4,204.1c4,11.5,1.5,24.2-6.5,33.4l-141.6,163.1c-8,9.2-20.2,13.4-32.2,11.1l-212-41.1c-11.9-2.3-21.7-10.8-25.7-22.3L-265.4,30.9c-4-11.5-1.5-24.2,6.5-33.4L-117.3-165.6Z"/>
      <path id="path72426" class="st13" d="M-113.6-137.3c6.8-8.4,17.6-12.5,28.2-10.9l189.6,29.9c10.7,1.7,19.6,8.9,23.5,19l68.9,179.2c3.9,10.1,2.1,21.5-4.7,29.9l-120.7,149.3c-6.8,8.4-17.6,12.5-28.2,10.9l-189.6-29.9c-10.7-1.7-19.6-8.9-23.5-19L-239.1,41.8c-3.9-10.1-2.1-21.5,4.7-29.9l120.7-149.3Z"/>
      <path id="path72428" class="st8" d="M-108.1-109.6c5.7-7.6,15-11.5,24.4-10.4l166.7,20.4c9.4,1.1,17.4,7.2,21.1,15.9l65.7,154.6c3.7,8.7,2.5,18.7-3.2,26.3l-101,134.2c-5.7,7.6-15,11.5-24.4,10.4l-166.7-20.4c-9.4-1.1-17.4-7.2-21.1-15.9L-212.3,50.9c-3.7-8.7-2.5-18.7,3.2-26.3L-108.1-109.6Z"/>
      <path id="path72430" class="st2" d="M-100.7-82.6c4.6-6.6,12.5-10.3,20.6-9.6l143.4,12.5c8.1.7,15.2,5.7,18.6,13l60.9,130.4c3.4,7.3,2.7,16-2,22.6l-82.5,118c-4.6,6.6-12.5,10.3-20.6,9.6l-143.4-12.5c-8.1-.7-15.2-5.7-18.6-13l-60.9-130.4c-3.4-7.3-2.7-16,2-22.6l82.5-118Z"/>
      <path id="path72432" class="st12" d="M-91.6-56.3c3.7-5.7,10.1-8.9,16.8-8.6l119.8,6.2c6.7.3,12.8,4.3,15.9,10.3l54.5,106.9c3.1,6,2.7,13.2-1,18.9l-65.3,100.7c-3.7,5.7-10.1,8.9-16.8,8.6l-119.8-6.2c-6.7-.3-12.8-4.3-15.9-10.3l-54.5-106.9c-3.1-6-2.7-13.2,1-18.9L-91.6-56.3Z"/>
      <path id="path72434" class="st20" d="M-80.8-30.8c2.8-4.6,7.8-7.4,13.2-7.3l96,1.6c5.4,0,10.3,3.1,13,7.8l46.6,83.9c2.6,4.7,2.5,10.5-.3,15.1l-49.4,82.3c-2.8,4.6-7.8,7.4-13.2,7.3l-96-1.6c-5.4,0-10.3-3.1-13-7.8l-46.6-83.9c-2.6-4.7-2.5-10.5.3-15.1L-80.8-30.8Z"/>
      <path id="path72436" class="st17" d="M-68.2-6.3c2-3.5,5.7-5.8,9.7-5.8l72-1.3c4.1,0,7.8,2,9.9,5.5l37.1,61.7c2.1,3.5,2.2,7.8.2,11.3l-34.9,63c-2,3.5-5.7,5.8-9.7,5.8l-72,1.3c-4.1,0-7.8-2-9.9-5.5l-37.1-61.7c-2.1-3.5-2.2-7.8-.2-11.3L-68.2-6.3Z"/>
      <path id="path72438" class="st16" d="M-54.1,17.2c1.2-2.4,3.6-4,6.3-4.1L.2,10.6c2.7-.1,5.3,1.2,6.7,3.4l26.2,40.2c1.5,2.3,1.6,5.1.4,7.6l-21.8,42.8c-1.2,2.4-3.6,4-6.3,4.1l-47.9,2.5c-2.7.1-5.3-1.2-6.7-3.4l-26.2-40.2c-1.5-2.3-1.6-5.1-.4-7.6l21.8-42.8Z"/>
    </g>
  </g>
  <g>
    <path class="st22" d="M156.4,1.9h8.4v120.1h-8.4V1.9Z"/>
    <path class="st22" d="M199.2,34.5h6.8l.9,13.6h.4c8.9-8.9,18-15.8,30.1-15.8,18.1,0,26.5,11,26.5,33.6v56.2h-8.1v-55.1c0-18.6-5.9-27.4-19.9-27.4s-18,5.5-28.6,16.4v66h-8.1V34.5Z"/>
    <path class="st22" d="M298.3,97.8v-56.3h-13.7v-6.3l13.9-.8,1-25.3h6.9v25.3h25.4v7h-25.4v56.9c0,11.2,2.8,18.7,14.9,18.7s7.8-1.4,11-2.8l2.1,6.5c-5.1,1.8-10.7,3.3-14.3,3.3-16.8,0-21.7-10.7-21.7-26.4Z"/>
    <path class="st22" d="M353.1,34.5h6.8l.9,16.3h.4c5.9-10.8,14.5-18.5,24.9-18.5s5.8.4,8.7,1.8l-1.8,7.3c-3-1.1-4.6-1.5-7.9-1.5-7.9,0-17.2,6-23.9,22.5v59.5h-8.1V34.5Z"/>
    <path class="st22" d="M400.8,100.2c0-19.5,17.5-28.7,56.5-33,.3-13.5-3.4-27.9-20.6-27.9s-22,5.8-27.9,10.3l-3.7-6c6.2-4.4,18.3-11.4,32.6-11.4,20.7,0,27.7,15.1,27.7,33.8v55.9h-6.8l-.9-11.4h-.4c-8.9,7.2-19.6,13.6-31.1,13.6s-25.4-7.5-25.4-24ZM457.3,103.1v-29.8c-36,4.2-48.2,12.5-48.2,26.5s8.5,17.4,18.6,17.4,18.9-4.8,29.7-14.1Z"/>
    <path class="st22" d="M489.2,78.4c0-29.3,18.7-46.1,40-46.1s19.7,5.3,25.6,10.8l-4.7,5.6c-5.7-5.3-12.2-9.3-20.7-9.3-17.9,0-31.7,16-31.7,39s12.6,38.7,31.6,38.7,17.4-4.5,23.4-10.1l4.2,5.7c-7.5,6.7-16.8,11.6-28,11.6-22.6,0-39.7-16.8-39.7-45.8Z"/>
    <path class="st22" d="M568,78.4c0-28.5,18.6-46.1,38.2-46.1s33.5,14.8,33.5,40.5,0,4.4-.5,6.6h-63c.3,22.1,13.2,37.9,33,37.9s17-3.1,23.5-7.8l3.3,6.1c-6.9,4.3-14.8,8.6-27.6,8.6-22.4,0-40.5-17.2-40.5-45.8ZM632.1,72.7c0-22.4-10.1-33.5-25.9-33.5s-28.2,12.5-30,33.5h55.9Z"/>
  </g>
</svg>